<?xml version="1.0" standalone="no"?>
<!DOCTYPE svg PUBLIC "-//W3C//DTD SVG 20010904//EN"
 "http://www.w3.org/TR/2001/REC-SVG-20010904/DTD/svg10.dtd">
<svg version="1.0" xmlns="http://www.w3.org/2000/svg"
 width="3188.000000pt" height="3188.000000pt" viewBox="0 0 3188.000000 3188.000000"
 preserveAspectRatio="xMidYMid meet">
<metadata>
Created by potrace 1.14, written by Peter Selinger 2001-2017
</metadata>
<g transform="translate(0.000000,3188.000000) scale(0.100000,-0.100000)"
fill="#000000" stroke="none">
<path d="M5243 18989 c-29 -15 -47 -34 -59 -62 -18 -39 -19 -165 -19 -2986 0
-2825 0 -2947 18 -2982 50 -100 176 -120 255 -41 47 47 45 -98 45 3022 0 2780
-1 2942 -17 2979 -38 83 -138 114 -223 70z"/>
<path d="M20644 18433 c-2 -7 -6 -19 -8 -27 -3 -8 -2 -17 1 -20 9 -9 9 -66 0
-66 -4 0 -4 -8 2 -17 6 -11 6 -24 0 -35 -6 -12 -6 -18 0 -18 6 0 7 -11 2 -27
-4 -16 -4 -41 -1 -58 3 -16 3 -44 -1 -62 -4 -18 -4 -34 -1 -37 8 -9 8 -66 -1
-66 -4 0 -3 -8 2 -18 6 -11 6 -24 0 -35 -7 -11 -7 -17 0 -17 6 0 7 -11 2 -27
-4 -16 -4 -41 -1 -58 3 -16 3 -44 -1 -62 -4 -18 -4 -34 -1 -37 8 -9 8 -66 -1
-66 -4 0 -3 -8 2 -18 6 -11 6 -24 0 -35 -7 -11 -7 -17 0 -17 6 0 7 -11 2 -27
-4 -16 -4 -41 -1 -58 3 -16 3 -44 -1 -62 -4 -18 -4 -34 -1 -37 8 -9 8 -66 -1
-66 -4 0 -3 -8 2 -18 6 -11 6 -24 0 -35 -7 -11 -7 -17 0 -17 6 0 7 -11 2 -27
-4 -16 -4 -41 -1 -58 3 -16 3 -44 -1 -62 -4 -18 -4 -34 -1 -37 8 -9 8 -66 -1
-66 -4 0 -3 -8 2 -18 6 -11 6 -24 0 -35 -7 -11 -7 -17 0 -17 5 0 6 -11 2 -27
-4 -16 -5 -42 -1 -58 4 -17 4 -39 0 -50 -4 -11 -4 -30 1 -42 5 -13 4 -25 -1
-28 -6 -4 -7 -13 -1 -23 5 -9 5 -26 1 -37 -4 -11 -4 -29 0 -41 5 -11 4 -27 0
-34 -5 -9 -4 -20 2 -27 7 -9 7 -13 0 -13 -7 0 -8 -10 -3 -27 4 -16 5 -41 2
-57 l-6 -29 -50 57 c-42 48 -114 121 -205 207 -9 8 -52 42 -96 75 -182 139
-388 239 -604 295 -95 25 -201 42 -262 43 -21 1 -38 3 -38 6 0 8 -313 4 -375
-4 -46 -6 -131 -20 -180 -30 -53 -11 -147 -38 -210 -62 -38 -14 -76 -26 -82
-27 -7 0 -13 -4 -13 -9 0 -4 -9 -8 -20 -8 -11 0 -20 -5 -20 -12 0 -6 -3 -9 -6
-6 -11 12 -283 -150 -292 -174 -2 -4 -8 -8 -14 -8 -5 0 -15 -6 -22 -12 -7 -7
-31 -26 -52 -43 -48 -37 -217 -205 -261 -260 -65 -80 -91 -115 -134 -182 -24
-37 -47 -69 -51 -71 -5 -2 -8 -12 -8 -22 0 -9 -7 -23 -15 -30 -8 -7 -15 -17
-15 -22 0 -4 -15 -39 -33 -76 -50 -101 -107 -270 -131 -392 -3 -14 -7 -34 -9
-45 -3 -11 -8 -47 -12 -80 -3 -33 -10 -87 -14 -120 -9 -82 -4 -320 9 -413 6
-42 13 -89 15 -104 2 -16 11 -57 20 -93 10 -36 18 -71 19 -78 12 -61 81 -237
127 -322 60 -113 73 -134 132 -217 150 -210 319 -373 527 -510 78 -51 237
-138 253 -138 4 0 26 -9 50 -19 95 -43 215 -76 342 -96 11 -2 34 -6 50 -9 99
-19 336 -25 465 -12 60 6 86 9 165 20 55 8 139 28 205 48 36 11 72 21 80 23 9
2 44 15 79 29 36 14 70 26 78 26 7 0 13 5 13 10 0 6 7 10 15 10 14 0 96 41
192 96 54 31 217 149 272 197 20 18 81 77 136 133 89 90 107 115 165 225 82
157 142 296 182 424 17 55 33 107 36 115 3 8 6 22 8 30 2 8 10 47 19 85 8 39
18 93 21 120 5 38 9 3367 5 3396 -1 3 -100 5 -222 5 -173 0 -222 -3 -225 -13z
m-1244 -1688 c77 -6 129 -14 150 -21 8 -3 29 -8 45 -10 42 -7 219 -67 223 -76
2 -5 10 -8 18 -8 23 0 183 -88 267 -147 73 -52 209 -178 266 -247 29 -35 120
-174 132 -201 5 -11 13 -27 18 -35 16 -27 61 -137 82 -201 31 -98 42 -147 54
-244 3 -27 8 -58 11 -67 8 -26 7 -243 0 -318 -8 -75 -20 -148 -30 -195 -15
-66 -19 -81 -24 -90 -4 -5 -7 -14 -7 -20 -1 -19 -28 -100 -37 -109 -4 -6 -8
-18 -8 -27 0 -9 -7 -22 -15 -29 -8 -7 -15 -19 -15 -26 0 -22 -94 -174 -157
-254 -66 -85 -202 -222 -245 -248 -15 -9 -28 -20 -28 -24 0 -4 -6 -8 -14 -8
-8 0 -16 -3 -18 -7 -10 -23 -163 -110 -271 -154 -39 -17 -72 -29 -72 -29 0 1
-7 -1 -15 -4 -31 -11 -146 -39 -175 -42 -201 -26 -426 -23 -552 6 -24 6 -60
14 -80 18 -21 5 -49 15 -63 22 -14 7 -27 12 -30 11 -8 -3 -92 31 -117 47 -13
8 -23 11 -23 8 0 -4 -12 1 -26 10 -25 17 -59 36 -121 69 -18 10 -33 21 -33 26
0 5 -5 9 -11 9 -34 0 -257 214 -322 310 -17 25 -34 47 -37 50 -14 12 -84 136
-124 222 -40 85 -99 268 -110 343 -15 94 -20 163 -19 270 1 100 7 200 13 200
1 0 3 16 6 35 3 28 41 173 58 225 17 52 69 169 98 218 15 26 28 50 28 53 0 7
97 149 124 183 37 46 180 186 221 218 57 43 144 103 149 103 3 0 27 13 53 28
71 42 238 109 280 114 5 0 18 4 29 9 12 4 39 10 61 14 21 3 50 8 63 11 14 3
57 8 95 11 39 3 71 6 72 7 4 3 101 -2 183 -9z"/>
<path d="M22069 18433 c-90 -31 -181 -110 -220 -191 -12 -26 -22 -51 -23 -57
-1 -5 -4 -14 -8 -20 -3 -5 -5 -48 -4 -95 3 -113 31 -183 103 -255 70 -72 122
-100 208 -111 136 -19 249 22 342 123 40 43 82 127 85 171 1 19 5 35 8 37 4 2
5 21 3 42 -10 136 -59 226 -164 305 -80 60 -232 83 -330 51z"/>
<path d="M5864 18324 c-37 -16 -68 -50 -83 -93 -18 -55 -15 -4555 3 -4597 40
-92 175 -118 251 -48 52 48 49 -91 50 2345 0 1246 -3 2279 -7 2296 -11 42 -60
90 -105 102 -45 12 -69 11 -109 -5z"/>
<path d="M14397 18140 c-32 -66 -57 -125 -57 -130 0 -6 -4 -10 -10 -10 -5 0
-10 -5 -10 -12 0 -6 -15 -44 -34 -82 -19 -39 -50 -105 -69 -146 -19 -41 -59
-127 -90 -190 -30 -63 -68 -144 -85 -180 -16 -36 -54 -114 -82 -175 -57 -119
-124 -262 -172 -365 -17 -36 -58 -121 -91 -190 -32 -69 -74 -156 -92 -195 -18
-38 -54 -114 -79 -168 -25 -55 -46 -103 -46 -108 0 -5 -4 -9 -8 -9 -5 0 -15
-19 -22 -42 -8 -24 -17 -45 -20 -48 -3 -3 -10 -16 -17 -30 -6 -14 -34 -72 -61
-130 -56 -117 -118 -249 -167 -355 -18 -38 -61 -128 -95 -200 -71 -149 -123
-258 -125 -265 -1 -3 -20 -44 -43 -92 -23 -48 -42 -92 -42 -97 0 -6 -4 -11
-10 -11 -5 0 -9 -3 -8 -7 1 -5 -15 -44 -36 -88 -37 -76 -69 -145 -170 -357
-24 -51 -57 -123 -75 -159 -17 -36 -31 -71 -31 -77 0 -7 -4 -12 -10 -12 -5 0
-10 -4 -10 -9 0 -10 -52 -125 -128 -281 -26 -52 -47 -97 -48 -100 -1 -3 -5
-15 -9 -27 -4 -13 -12 -23 -18 -23 -6 0 -8 -3 -5 -6 6 -5 -21 -64 -107 -239
-13 -27 -22 -51 -20 -53 3 -3 448 -5 517 -3 9 1 23 19 35 46 10 25 21 45 26
45 4 0 7 6 7 14 0 8 12 38 27 68 15 29 28 55 28 58 1 3 22 48 47 100 25 52 62
131 83 175 52 111 107 227 182 384 34 73 63 135 63 137 0 2 24 53 54 113 30
60 57 120 61 133 4 12 13 30 20 38 6 8 22 40 35 70 12 30 38 87 57 127 l35 71
1035 0 1034 0 8 -21 c5 -12 37 -80 71 -152 66 -138 129 -271 209 -437 27 -57
74 -157 106 -223 32 -66 74 -156 95 -200 21 -44 62 -132 93 -195 30 -63 80
-168 111 -232 39 -84 61 -118 73 -119 64 -2 485 0 488 3 2 2 -30 75 -71 163
-41 88 -87 185 -101 215 -46 100 -71 154 -118 255 -26 55 -58 123 -70 150 -12
28 -44 95 -70 150 -26 55 -71 152 -100 215 -52 112 -94 203 -180 385 -23 50
-52 113 -65 140 -12 28 -45 97 -72 155 -52 109 -81 171 -83 180 -1 3 -19 41
-39 85 -111 233 -156 330 -213 455 -14 30 -43 93 -65 139 -22 46 -52 111 -68
145 -39 85 -102 219 -138 296 -17 36 -48 103 -70 150 -21 47 -50 110 -64 140
-14 30 -38 82 -54 115 -15 33 -44 95 -65 138 -21 42 -38 80 -39 82 0 5 -46
103 -118 255 -19 41 -36 77 -37 80 -1 5 -20 46 -100 215 -23 50 -56 119 -73
155 -16 36 -45 97 -63 135 -18 39 -33 72 -34 75 0 3 -13 31 -29 63 l-27 57
-58 0 -58 0 -56 -120z m200 -1080 c17 -36 52 -110 78 -165 26 -55 58 -125 72
-155 14 -30 43 -91 63 -135 21 -44 54 -115 74 -157 53 -115 98 -210 156 -333
29 -60 65 -138 81 -172 67 -146 90 -194 143 -307 31 -65 54 -121 52 -125 -3
-4 -1500 -7 -1611 -2 -19 1 -14 14 45 134 79 161 131 275 129 283 0 4 3 10 8
13 4 3 19 31 33 61 14 30 29 58 33 61 5 3 8 9 7 13 -1 4 9 30 23 59 90 185
137 288 137 297 0 5 5 10 12 10 6 0 9 2 6 6 -3 3 20 58 51 122 32 64 66 138
77 164 10 27 22 48 27 48 4 0 7 5 7 11 0 6 24 61 54 122 30 62 78 162 107 222
l52 110 27 -60 c15 -33 41 -89 57 -125z"/>
<path d="M3442 18153 c-40 -19 -69 -54 -80 -97 -5 -17 -8 -976 -8 -2132 l1
-2100 28 -42 c33 -50 85 -75 142 -69 59 6 88 24 118 70 l27 41 -3 2122 -2
2123 -21 28 c-51 69 -131 91 -202 56z"/>
<path d="M4665 18049 c-39 -19 -62 -45 -80 -89 -11 -25 -16 -398 -19 -1457 0
-293 -5 -533 -9 -533 -5 0 -5 -6 0 -12 7 -13 6 -128 -2 -136 -2 -2 0 -15 5
-28 6 -14 6 -26 0 -29 -7 -4 -6 -13 0 -25 7 -13 7 -21 0 -25 -7 -4 -7 -12 0
-24 5 -10 7 -21 4 -24 -3 -3 -8 -394 -10 -869 -5 -964 -9 -905 64 -953 68 -44
141 -37 200 18 50 46 45 -76 57 1482 3 440 5 816 5 835 -1 19 -2 42 -1 50 4
60 3 171 -2 176 -4 4 -3 14 1 23 4 9 7 358 7 776 l0 760 -22 31 c-44 61 -133
85 -198 53z"/>
<path d="M7093 17937 c-42 -12 -86 -53 -103 -95 -11 -27 -13 -369 -13 -1895 0
-1024 3 -1877 7 -1894 9 -41 64 -96 108 -109 75 -24 176 32 196 108 4 16 7
871 7 1901 l-1 1873 -22 36 c-39 64 -113 94 -179 75z"/>
<path d="M2857 17365 c-47 -16 -71 -37 -91 -80 -14 -30 -16 -171 -16 -1352 l0
-1319 25 -37 c71 -104 222 -93 273 20 17 38 18 106 17 1349 -1 956 -5 1316
-13 1334 -35 78 -116 112 -195 85z"/>
<path d="M4062 17263 c-46 -15 -79 -48 -93 -92 -18 -53 -17 -2410 0 -2463 25
-75 119 -121 196 -95 36 12 95 69 95 90 0 9 3 18 8 20 4 3 7 551 7 1219 -1
1198 -1 1214 -21 1248 -40 70 -117 99 -192 73z"/>
<path d="M6487 17266 c-43 -12 -84 -47 -100 -86 -15 -34 -18 -2434 -3 -2470
47 -117 201 -138 277 -37 l24 32 2 1225 3 1225 -23 39 c-37 66 -106 94 -180
72z"/>
<path d="M28925 17162 c-2 -3 -26 -6 -52 -7 -47 -3 -104 -10 -153 -20 -14 -3
-36 -7 -50 -10 -46 -8 -223 -62 -277 -84 -231 -92 -446 -240 -627 -430 -28
-30 -59 -63 -69 -73 -59 -62 -267 -376 -267 -403 0 -3 -13 -32 -29 -65 -16
-33 -27 -60 -24 -60 3 0 0 -6 -6 -14 -7 -8 -13 -22 -16 -32 -2 -11 -11 -39
-19 -63 -18 -49 -42 -137 -51 -191 -9 -46 -13 -65 -15 -65 -5 0 -21 -176 -25
-267 -2 -37 -6 -71 -10 -77 -3 -6 -3 -11 2 -11 4 0 8 -35 9 -78 1 -88 10 -176
25 -253 5 -30 12 -65 14 -79 8 -58 59 -217 100 -315 28 -68 108 -220 117 -223
4 -2 8 -8 8 -13 0 -9 66 -112 92 -144 5 -5 33 -41 64 -80 59 -74 230 -246 277
-280 16 -11 43 -32 60 -47 18 -15 38 -28 45 -28 6 0 12 -3 12 -8 0 -4 17 -16
37 -27 20 -11 43 -26 50 -33 7 -8 19 -15 26 -16 6 -1 23 -8 37 -16 25 -14 100
-52 110 -55 3 -1 16 -6 30 -12 28 -13 52 -21 60 -20 3 0 16 -6 30 -13 30 -16
124 -43 195 -56 17 -2 47 -9 68 -15 20 -5 42 -7 47 -4 6 3 10 3 10 -2 0 -4 12
-9 28 -10 15 0 72 -5 127 -9 144 -11 259 -7 350 12 11 3 31 6 45 9 54 8 117
21 145 29 6 2 28 7 50 11 49 11 47 10 65 18 8 3 44 16 80 28 60 20 174 68 210
88 116 63 178 104 259 169 56 46 157 147 189 192 14 19 31 40 37 45 6 6 34 47
62 92 l50 82 0 -394 c0 -218 3 -398 6 -401 6 -6 469 -5 476 1 12 13 0 2006
-13 2100 -12 84 -30 178 -50 266 -13 53 -72 212 -103 277 -20 43 -37 79 -37
82 -4 22 -149 246 -188 292 -13 14 -37 44 -55 66 -155 189 -412 390 -618 482
-27 12 -63 28 -80 36 -31 14 -109 42 -135 49 -8 2 -43 11 -77 20 -35 9 -73 18
-85 21 -68 13 -140 24 -193 30 -65 7 -374 12 -380 6z m255 -447 c52 -3 104 -8
115 -9 49 -7 102 -18 125 -27 14 -5 39 -12 55 -15 45 -8 192 -73 263 -116 34
-21 67 -38 72 -38 6 0 10 -4 10 -9 0 -5 15 -18 33 -28 86 -52 275 -249 352
-368 52 -80 108 -185 102 -191 -3 -3 4 -32 14 -65 11 -34 21 -73 24 -87 3 -15
7 -38 10 -52 8 -31 12 -62 20 -125 3 -27 8 -63 11 -80 3 -16 6 -118 8 -225 l3
-195 -44 -107 c-48 -117 -156 -334 -179 -359 -8 -8 -14 -19 -14 -23 0 -9 -136
-202 -159 -226 -9 -9 -40 -42 -69 -73 -29 -31 -58 -57 -63 -57 -6 0 -8 -3 -6
-7 7 -12 -155 -130 -252 -185 -82 -46 -266 -113 -341 -123 -19 -3 -62 -9 -95
-14 -84 -13 -351 -5 -430 12 -16 3 -48 9 -70 12 -105 15 -392 197 -546 346
-68 66 -159 171 -159 183 0 4 -9 16 -20 28 -11 12 -20 28 -20 35 0 7 -3 13 -7
13 -5 0 -19 24 -33 53 -14 28 -27 54 -30 57 -7 6 -60 129 -66 150 -2 8 -10 35
-19 60 -9 25 -17 53 -18 62 -1 10 -4 18 -7 18 -3 0 -6 8 -6 18 -1 9 -4 31 -8
47 -3 17 -9 46 -11 65 -3 19 -8 51 -11 70 -7 44 -6 273 1 325 10 64 30 170 35
185 1 3 2 8 1 12 -4 30 112 304 162 383 22 35 114 159 136 185 65 74 122 130
131 130 5 0 10 4 10 9 0 8 134 121 143 121 3 0 29 16 58 36 29 19 78 47 108
60 31 14 68 32 83 40 15 8 29 14 30 14 2 -1 17 4 33 10 61 24 246 60 325 64
45 3 84 7 87 10 3 2 10 3 16 1 7 -2 55 -7 107 -10z"/>
<path d="M24896 17083 c-1 -2 -40 -5 -87 -8 -71 -5 -154 -16 -302 -42 -43 -7
-245 -68 -302 -91 -45 -18 -113 -54 -140 -74 -5 -4 -50 -37 -99 -73 -95 -70
-113 -86 -209 -180 -106 -104 -155 -171 -213 -295 -29 -61 -63 -146 -69 -171
-2 -9 -10 -37 -19 -62 -8 -25 -18 -56 -20 -69 -3 -13 -7 -33 -10 -45 -12 -48
-21 -96 -31 -158 -2 -11 -6 -33 -9 -50 -11 -62 -21 -144 -33 -260 -3 -33 -5
-154 -5 -270 1 -115 3 -564 4 -998 l2 -787 229 2 229 3 3 865 c1 476 3 865 4
865 1 0 4 50 7 110 2 61 6 124 9 140 2 17 6 57 9 90 7 63 11 94 20 135 3 14 7
70 10 125 3 55 10 123 15 152 14 70 78 223 94 223 4 0 7 6 7 14 0 14 134 156
176 186 64 47 86 61 154 98 102 55 252 111 308 115 6 0 12 3 12 6 0 3 12 7 28
7 54 2 121 12 133 20 8 4 9 3 5 -4 -5 -9 -1 -10 16 -4 43 15 350 0 464 -22
128 -26 278 -79 318 -115 10 -9 20 -14 23 -13 2 2 25 -13 51 -35 58 -49 67
-57 100 -101 15 -21 29 -39 33 -42 20 -18 111 -228 108 -250 0 -3 4 -18 10
-33 6 -16 14 -50 16 -75 3 -26 8 -55 11 -65 3 -11 8 -42 10 -70 2 -29 7 -88
10 -132 4 -44 8 -554 10 -1134 1 -579 4 -1055 6 -1057 2 -2 103 -4 223 -4
l220 -1 0 35 c0 20 2 36 5 36 6 0 2 290 -4 307 -3 7 -2 13 2 13 8 0 6 335 -2
356 -3 7 -1 16 3 19 8 4 5 64 -4 93 -3 6 -1 12 3 12 8 0 6 495 -2 516 -3 7 -1
16 3 19 8 4 5 64 -4 93 -3 6 -1 12 3 12 4 0 6 69 5 152 -3 214 -3 231 -2 248
1 31 -11 307 -17 365 -11 120 -14 138 -29 240 -3 22 -13 72 -21 110 -9 39 -17
78 -19 87 -8 41 -67 198 -89 239 -13 24 -32 60 -42 79 -11 19 -21 37 -24 40
-3 3 -22 28 -42 55 -39 53 -157 173 -198 202 -14 9 -27 20 -30 23 -31 39 -390
227 -390 204 0 -2 -12 2 -27 9 -24 12 -43 17 -122 33 -7 1 -35 8 -61 14 -26 6
-76 14 -111 16 -70 5 -319 10 -323 7z"/>
<path d="M7693 17026 c-18 -6 -33 -14 -33 -18 0 -4 -6 -8 -12 -8 -7 0 -24 -17
-38 -37 l-25 -37 -1 -975 c-2 -1035 -2 -1021 44 -1058 9 -8 34 -22 55 -32 71
-34 162 2 201 80 11 22 13 206 12 1006 -1 939 -2 979 -20 1009 -35 57 -118 89
-183 70z"/>
<path d="M21959 16960 c-1 -47 -1 -3482 0 -3498 1 -10 50 -12 228 -10 l227 3
0 1758 c1 968 -2 1764 -5 1769 -5 7 -87 11 -228 12 l-221 1 -1 -35z"/>
<path d="M1685 16825 c-5 -2 -21 -6 -35 -9 -38 -8 -87 -59 -99 -102 -6 -25
-10 -308 -10 -785 l-1 -746 23 -43 c34 -64 97 -92 177 -78 37 7 63 26 91 66
l24 36 1 377 c1 208 4 385 7 393 4 9 3 16 -1 16 -4 0 -7 172 -7 383 0 376 0
383 -22 417 -23 37 -52 59 -85 65 -11 2 -27 6 -36 9 -9 2 -21 3 -27 1z"/>
<path d="M8893 16803 c-31 -6 -91 -76 -98 -115 -3 -18 -5 -367 -3 -775 3 -734
3 -742 24 -770 48 -64 121 -89 189 -63 38 15 95 78 96 109 7 127 5 1474 -3
1504 -21 88 -101 130 -205 110z"/>
<path d="M8305 16621 c-44 -13 -84 -46 -101 -84 -17 -37 -18 -83 -19 -581 -1
-298 2 -556 6 -575 14 -65 72 -117 139 -125 67 -8 143 45 165 114 10 32 10
1107 0 1140 -25 80 -114 132 -190 111z"/>
<path d="M2250 16493 c-41 -17 -88 -65 -97 -102 -4 -14 -7 -222 -7 -461 0
-434 0 -436 22 -472 33 -53 61 -69 142 -81 15 -2 69 19 92 36 61 45 61 49 61
527 0 398 -2 439 -18 470 -16 31 -61 79 -75 80 -3 1 -23 4 -45 9 -27 5 -51 3
-75 -6z"/>
<path d="M9485 16346 c-35 -16 -51 -31 -68 -67 -23 -45 -23 -51 -22 -345 1
-184 6 -309 12 -324 27 -64 118 -106 184 -86 46 14 82 44 103 83 14 28 16 74
16 333 0 259 -2 305 -16 333 -20 37 -31 49 -64 67 -52 29 -92 30 -145 6z"/>
<path d="M1033 16243 c-85 -44 -95 -73 -96 -272 0 -250 0 -248 50 -298 43 -44
56 -48 128 -44 47 2 98 38 122 84 24 48 25 407 0 454 -38 72 -139 110 -204 76z"/>
<path d="M10089 16196 c-36 -19 -68 -52 -81 -84 -6 -15 -10 -92 -10 -173 0
-170 11 -205 75 -246 32 -20 48 -24 86 -20 66 7 74 10 105 38 43 40 51 81 50
240 -1 173 -14 206 -93 248 -28 15 -101 14 -132 -3z"/>
</g>
</svg>
