
        <svg xmlns="http://www.w3.org/2000/svg" xmlns:xlink="http://www.w3.org/1999/xlink" version="1.1" width="3187.5" height="801.6467844502309" viewBox="0 0 3187.5 801.6467844502309">
			
			<g transform="scale(9.375) translate(10, 10)">
				<defs id="SvgjsDefs1678"/><g id="SvgjsG1679" featureKey="S6ay6y-0" transform="matrix(1.1235955056179776,0,0,1.1235955056179776,-6.179775280898877,-23.42584374245633)" fill="#fff"><path xmlns="http://www.w3.org/2000/svg" d="M7,47c-0.829,0-1.5,0.671-1.5,1.5v3C5.5,52.329,6.171,53,7,53s1.5-0.671,1.5-1.5v-3C8.5,47.671,7.829,47,7,47z"/><path xmlns="http://www.w3.org/2000/svg" d="M12.733,41.603c-0.829,0-1.5,0.671-1.5,1.5v13.795c0,0.829,0.671,1.5,1.5,1.5s1.5-0.671,1.5-1.5V43.103  C14.233,42.274,13.562,41.603,12.733,41.603z"/><path xmlns="http://www.w3.org/2000/svg" d="M18.467,44.667c-0.829,0-1.5,0.671-1.5,1.5v7.667c0,0.829,0.671,1.5,1.5,1.5s1.5-0.671,1.5-1.5v-7.667  C19.967,45.338,19.295,44.667,18.467,44.667z"/><path xmlns="http://www.w3.org/2000/svg" d="M24.2,36.375c-0.829,0-1.5,0.671-1.5,1.5v24.25c0,0.829,0.671,1.5,1.5,1.5s1.5-0.671,1.5-1.5v-24.25  C25.7,37.046,25.029,36.375,24.2,36.375z"/><path xmlns="http://www.w3.org/2000/svg" d="M29.933,28.833c-0.829,0-1.5,0.671-1.5,1.5v39.333c0,0.829,0.671,1.5,1.5,1.5s1.5-0.671,1.5-1.5V30.333  C31.433,29.505,30.762,28.833,29.933,28.833z"/><path xmlns="http://www.w3.org/2000/svg" d="M35.667,37.333c-0.829,0-1.5,0.671-1.5,1.5v22.333c0,0.829,0.671,1.5,1.5,1.5s1.5-0.671,1.5-1.5V38.833  C37.167,38.005,36.495,37.333,35.667,37.333z"/><path xmlns="http://www.w3.org/2000/svg" d="M41.534,29.835c-0.87-0.024-1.505,0.662-1.51,1.49l-0.249,37.331c-0.005,0.828,0.662,1.504,1.49,1.51  c0.003,0,0.006,0,0.01,0c0.824,0,1.495-0.665,1.5-1.49l0.249-37.331C43.03,30.517,42.363,29.84,41.534,29.835z"/><path xmlns="http://www.w3.org/2000/svg" d="M47.133,20.849c-0.829,0-1.5,0.671-1.5,1.5v55.303c0,0.829,0.671,1.5,1.5,1.5s1.5-0.671,1.5-1.5V22.349  C48.633,21.52,47.962,20.849,47.133,20.849z"/><path xmlns="http://www.w3.org/2000/svg" d="M52.867,27.25c-0.829,0-1.5,0.671-1.5,1.5v42.5c0,0.829,0.671,1.5,1.5,1.5s1.5-0.671,1.5-1.5v-42.5  C54.367,27.921,53.695,27.25,52.867,27.25z"/><path xmlns="http://www.w3.org/2000/svg" d="M58.6,37.333c-0.829,0-1.5,0.671-1.5,1.5v22.333c0,0.829,0.671,1.5,1.5,1.5s1.5-0.671,1.5-1.5V38.833  C60.1,38.005,59.429,37.333,58.6,37.333z"/><path xmlns="http://www.w3.org/2000/svg" d="M64.333,31c-0.829,0-1.5,0.671-1.5,1.5v35c0,0.829,0.671,1.5,1.5,1.5s1.5-0.671,1.5-1.5v-35  C65.833,31.671,65.162,31,64.333,31z"/><path xmlns="http://www.w3.org/2000/svg" d="M70.067,39.632c-0.829,0-1.5,0.671-1.5,1.5v17.735c0,0.829,0.671,1.5,1.5,1.5s1.5-0.671,1.5-1.5V41.132  C71.567,40.304,70.896,39.632,70.067,39.632z"/><path xmlns="http://www.w3.org/2000/svg" d="M75.8,43.5c-0.829,0-1.5,0.671-1.5,1.5v10c0,0.829,0.671,1.5,1.5,1.5s1.5-0.671,1.5-1.5V45  C77.3,44.171,76.628,43.5,75.8,43.5z"/><path xmlns="http://www.w3.org/2000/svg" d="M81.533,41.735c-0.829,0-1.5,0.671-1.5,1.5v13.53c0,0.829,0.671,1.5,1.5,1.5s1.5-0.671,1.5-1.5v-13.53  C83.033,42.406,82.362,41.735,81.533,41.735z"/><path xmlns="http://www.w3.org/2000/svg" d="M87.267,45.99c-0.829,0-1.5,0.671-1.5,1.5v5.021c0,0.829,0.671,1.5,1.5,1.5s1.5-0.671,1.5-1.5V47.49  C88.767,46.661,88.095,45.99,87.267,45.99z"/><path xmlns="http://www.w3.org/2000/svg" d="M93,47.417c-0.829,0-1.5,0.671-1.5,1.5v2.167c0,0.829,0.671,1.5,1.5,1.5s1.5-0.671,1.5-1.5v-2.167  C94.5,48.088,93.829,47.417,93,47.417z"/></g><g id="SvgjsG1680" featureKey="j5pGhi-0" transform="matrix(3.526770434883686,0,0,3.526770434883686,118.31279557474691,-9.256809654706272)" fill="#fff"><path d="M7.6758 4.901999999999999 l6.748 14.482 l-1.543 0 l-2.2754 -4.7754 l-6.25 0 l-2.2559 4.7754 l-1.6211 0 l6.8457 -14.482 l0.35156 0 z M7.5 7.968999999999999 l-2.5 5.2539 l4.9609 0 z M26.348109375 17.3633 q0.87890625 -1.46484375 1.0546875 -2.880859375 q0 -10.16601563 0 -10.14648438 l-1.3672 0 l0 5.9766 q-0.869140625 -1.064453125 -1.943359375 -1.586914063 t-2.3535 -0.52246 q-2.265625 0 -3.876953125 1.650390625 t-1.6113 4.0039 q0 2.314453125 1.62109375 3.955078125 t3.9063 1.6406 q1.30859375 0 2.456054688 -0.5029296875 t2.1143 -1.5869 z M21.894509375 18.1348 q-1.162109375 0 -2.133789063 -0.5712890625 t-1.5479 -1.5869 t-0.57617 -2.168 q0 -1.1328125 0.5810546875 -2.172851563 t1.5625 -1.6113 t2.0947 -0.57129 q1.1328125 0 2.1484375 0.5712890625 t1.5625 1.5527 t0.54688 2.1924 q0 1.865234375 -1.23046875 3.115234375 t-3.0078 1.25 z M30.70310625 4.3260000000000005 q0.46875 0 0.8056640625 0.33203125 t0.33691 0.80078 t-0.33691 0.80566 t-0.80566 0.33691 t-0.80078 -0.33691 t-0.33203 -0.80566 t0.33203 -0.80078 t0.80078 -0.33203 z M30.01950625 8.73 l1.377 0 l0 10.713 l-1.377 0 l0 -10.713 z M34.23824375 15.3809 l-0.019531 -1.1426 q-0.029296875 -0.83984375 0.068359375 -1.42578125 q0.21484375 -1.845703125 0.9375 -2.705078125 q0.703125 -0.751953125 1.435546875 -1.162109375 q1.2109375 -0.517578125 2.763671875 -0.48828125 q1.2109375 0 2.241210938 0.6103515625 t1.4697 1.6406 t0.43945 3.2275 l0 5.5078 l-1.3672 0 l0 -5.1074 q0 -1.85546875 -0.15625 -2.48046875 q-0.244140625 -1.064453125 -0.966796875 -1.508789063 t-2.1387 -0.44434 q-1.25 0 -2.2265625 0.72265625 t-0.9082 1.9727 q-0.185546875 0.80078125 -0.185546875 2.919921875 l0 3.9258 l-1.3867 0 l0 -4.0625 z M51.57226875 8.203 q2.470703125 0 4.1015625 1.787109375 q1.50390625 1.630859375 1.50390625 3.876953125 q0.01953125 5.546875 0 5.634765625 l-1.4551 0 l0 -2.4316 q-1.142578125 2.12890625 -4.150390625 2.3828125 q-2.4609375 0 -4.018554688 -1.674804688 t-1.5576 -3.9111 q0 -2.2265625 1.474609375 -3.8671875 q1.630859375 -1.796875 4.1015625 -1.796875 z M51.57226875 9.551 q-1.708984375 0 -2.939453125 1.26953125 t-1.2305 3.0664 q0 1.162109375 0.6298828125 2.236328125 t2.1338 1.8164 q3.76953125 0.83984375 5.361328125 -3.427734375 q0.087890625 -1.3671875 -0.29296875 -2.6171875 q-0.2734375 -0.56640625 -0.751953125 -1.07421875 q-1.201171875 -1.26953125 -2.91015625 -1.26953125 z"/></g>
			</g>
		</svg>
	