
        <svg xmlns="http://www.w3.org/2000/svg" xmlns:xlink="http://www.w3.org/1999/xlink" version="1.1" width="3204.081632653061" 
        height="1260.204081632653" viewBox="0 0 3204.081632653061 1260.204081632653">
			<rect fill="#fafafa" width="3204.081632653061" height="1260.204081632653"/>
			<g transform="scale(10.204081632653061) translate(10, 10)">
				<defs id="SvgjsDefs3939"></defs><g id="SvgjsG3940" featureKey="symbolGroupContainer" transform="matrix(1.010742172438768,0,0,1.010742172438768,0.023278286297325902,0)" fill="#ff7e67"><g xmlns="http://www.w3.org/2000/svg"><path d="M1.4 6.1zm-.3 86zm.5-25zm73 34.4zm-6.1.4zM76.8.5zm-69.1.8zM101.9 3a.7.7 0 0 1-.1-.4V2a.4.4 0 0 0-.1-.2l-.7-1 .7.7h-.2L101 1h-.8c.1 0 .1.1 0 .1h-.8L97.7.9h-.1l.4-.2c.1-.1.1-.1 0-.2h-1.2l-.5.2h-1.7c-.6-.1-.9.2-.7.5h.1c-.2.1-.5.1-.6.3l-.3.3h-.5c.2-.3.1-.4-.4-.4l-1-.2-.8-.5-1 .3h-.1a1.2 1.2 0 0 1-1.1 0L87 .8h-.6c-.1.1-.1.1 0 .2s.1.2-.1.3h-.2l.2.2h-.8v.1a2 2 0 0 0-.1-.4L85 1h-2.8l-.5-.2a2.4 2.4 0 0 0-1.3-.2h-1.1a1.4 1.4 0 0 0-.9.1h-.3l.4.2a.2.2 0 0 1 .1.2h-.3l-.8-.2a1.4 1.4 0 0 1-.8-.3c-.1-.1-.1-.2.1-.2h-3l-.7.2a.7.7 0 0 0-.6.3h-1.9l-.5-.1-.3-.2h-.4c-.1.1.1.2.2.3s.1.1-.1.2h-.3c.1.1.1.2 0 .2h-.5c-.3 0-.5-.1-.7-.2a2.4 2.4 0 0 0-.8-.5h-.7l.4.2c.1 0 .1 0 0 .1h-.1c-.2 0-.4-.1-.4-.2h-.8v.2a1.4 1.4 0 0 1-1-.3V.4h-.1l-.5.5h-.5c-.1-.1-.1-.1.1-.2l.9-.3H63a1.1 1.1 0 0 0-1.1-.1H58v.3h.2c.5.1.5.1.3.2s-.3.3-.3.5h-1.4c-.3 0-.5-.2-.2-.3s.6-.3.5-.6V.2h-2.5l-1 .5-.3.4h-.5c0-.2 0-.4.2-.6s0-.1 0-.2h-1.2l.5.4h-.4c-.4 0-.4 0-.5.2h-.7a.4.4 0 0 0-.4-.2h-1.1v.2s0 .1-.1.2h-.4a.7.7 0 0 0-.6.2h-.7c.3-.1.3-.3 0-.4a1.3 1.3 0 0 1-.7-.3h-.3c-.2 0-.3-.1-.2-.2s-.1-.3-.3-.3h-.5c-.3.1-.3.3 0 .5s.2.1.1.2 0 .1 0 .1l.5-.2h-.6l-.8-.2c-.2-.1-.3-.2-.1-.3h.1l-.5.3h-.5c-.2 0-.3.1-.2.2h-1.1l-.2.2a1.1 1.1 0 0 1-.9.3h.1c.1-.1.1-.2-.1-.2s-1 0-.9.3.1.2 0 .3l-.2.2-.5.2H36l-1.1-.5h-.4l-.3-.6V.7h-.5c-.2 0-.2.1-.2.2a1.7 1.7 0 0 0-1.5.4l-.2.2h-2.9c.4-.1.5-.2.2-.3h-.3v.4h-.7l.7-.2a1 1 0 0 0-.8-.1l-1 .1a1.4 1.4 0 0 0-1.2-.1c-.2 0-.3 0-.3-.2s0-.2-.3-.2a2.1 2.1 0 0 0-1.1.2h-.7l-1-.1v.4c.1 0 .1 0 0 0V1h-.1c-.3-.2-.7-.3-.8-.6h-1L19.2.1h-.5l-.4.3H17l-.3.3h-.3c-.3-.2-.9-.1-1.3-.2h-.8c-.3 0-.5.2-.4.3l.2.3h.9c.2 0 .2.1.1.2h-.7l-.2-.2v.3h-.4v.1h-.5l-.6-.3a2.6 2.6 0 0 0-1.4-.5c-.2 0-.5.1-.5.2h.7l-.3.5c0 .1 0 .1.1.1H9.1v.1l-.5-.2a1.2 1.2 0 0 0-.8 0H6.7a1.2 1.2 0 0 0-.9.1 2.3 2.3 0 0 1-1.2.1c-.1-.1-.1-.2.2-.2h-.2V.8h.2c0 .1 0 .2-.1.3l.7-.1.3-.2c-.1-.2.2-.3.1-.5h-.3c-.2.3-.3.3-.7.2L3.6.3H2.5L.9.6l.2 1.2v.4c.2-.3.4.1.6-.3l.7-.7v.1l-.6.6.2.2a.5.5 0 0 1 .2.5 2.3 2.3 0 0 1-.1.7 2.5 2.5 0 0 0-.3.9V5c0 .3-.1.4-.3.5h-.2c-.1 0-.1.2-.1.4v.2l.2.2a.5.5 0 0 1 0 .4c-.1.2-.2.3-.3.3s-.3.1-.3.6a.8.8 0 0 0 0 .2 1.1 1.1 0 0 0 0 .3h.1l.2-.3h.1a.6.6 0 0 1 0 .3 1.3 1.3 0 0 1-.1.4C1 8.8.8 9 .6 9v.2c.1.1.2.5.3.5s.1.3.1.6.1.6.3.4h.3c.1.1.1.1.1.6-.1 0-.1.1-.1.3v.7h-.3a1.2 1.2 0 0 0-.4-.7H.8a1.2 1.2 0 0 0 0 .3 1.7 1.7 0 0 0 .3.7.7.7 0 0 1 0 .6 1.1 1.1 0 0 0-.1.6l.5.5c-.1.3-.2.3-.3.6a1.8 1.8 0 0 1-.3.8c-.1.1-.1.7 0 .7s.3.8.6.9.1.3 0 .4-.1.2-.2.2h-.1c-.2-.1-.2-.1-.2.4H.8c-.1 0-.1.1-.1.2v-.1l.2-.3.4.8v1.5a2 2 0 0 1-.2 1c-.1 0 0-.1 0-.2s0-.3-.1-.3l-.2.2c-.2.1-.3.5-.1.8l.3.8a.4.4 0 0 1 0 .1v.2l-.2-.2c0-.1-.1-.1-.1 0a.9.9 0 0 0 0 .3 3.2 3.2 0 0 0 .1.4c0 .1.1.3.2.2l.3-.2c.1-.1.2-.2.3-.1a.8.8 0 0 1 .2.6l-.3.4a1.7 1.7 0 0 0-.2.6H1c-.1.2 0 .5-.1.7l-.2.3a.5.5 0 0 0 0 .3l.4.6h.1c.2.1.2-.3.3-.5h.3a2 2 0 0 0 .3.8.5.5 0 0 1 0 .4L2 28h-.1a.6.6 0 0 0-.1.3 2.3 2.3 0 0 1-.1.7 2.5 2.5 0 0 0 0 .9l-.3-.6a1.1 1.1 0 0 0 0-.6c-.1-.2-.2-.4-.3-.4s-.2.2-.2.5a.4.4 0 0 0 .1.3H.9a.5.5 0 0 1 .1.4v.2H.7v.2l.3.4c.1.1.1.6-.1.6s-.4.4-.4.9 0 .4.1.3.2 0 .3.3 0 1.1.2 1.5a.4.4 0 0 1 0 .2A13.3 13.3 0 0 1 .9 36a.8.8 0 0 0 0 .4H1c0 .2-.1.3-.1.4l.2.2v.5l.2.4v.3a.8.8 0 0 1 0 .3 1 1 0 0 1-.2.6c-.1.1-.2.1-.3.3s-.1 0-.1-.2a1.7 1.7 0 0 1 .1-.8c.1-.2 0-.5-.1-.6s-.2 0-.3.2a6.9 6.9 0 0 0-.4 2c0 .1 0 .2.1.1h.5v.2a3.7 3.7 0 0 0-.4 1.1v.3c0 .5.1.8.3.9s.1.3.1.4l-.1 1a4.2 4.2 0 0 1 0 1.4v.2c-.2.4-.2.4 0 .7a.7.7 0 0 1 .1.4 1 1 0 0 0 .1.5l.2-.3.3-.9c.1-.2.1-.2.2 0s.1.5.1.7a1.6 1.6 0 0 1 0 .3.9.9 0 0 1 0 .3 1.2 1.2 0 0 0-.2.7h-.2c-.1-.3-.2-.7-.4-.9.1.5 0 .6-.1.7H.4a.6.6 0 0 0-.2.5c0 .1 0 .2.1.3h.2c.1 0 .2.2.2.4s0 .4-.1.4-.3-.1-.5.3a.7.7 0 0 0 0 .4v.2a2 2 0 0 1 .2 1.4c0 .2 0 .5-.1.8a1 1 0 0 1 .2.8v.9h.1c.4.2.5.4.6 1.3v.2l-.2-.3v.7c-.1.3-.1.3-.3.5H.3v.2l.3.3h.3c0 .3.1.2.2.3-.1.4-.1.4-.3.4H.7a.2.2 0 0 0 0 .2 2.5 2.5 0 0 1 .1 1H1a.3.3 0 0 0 .3-.1v.6c-.2.1-.3-.1-.4 0s-.1 0-.1-.4a3 3 0 0 0-.1 1 .5.5 0 0 1-.2.4.3.3 0 0 0-.1.3l.4.6-.3.3-.4.3c.1.4.2.7.3.8s.2.2.2.4h.3a.2.2 0 0 1 0 .1H.7V63a.9.9 0 0 0 0 .6 2.6 2.6 0 0 1 .3 1s.1-.1.1-.2a1.8 1.8 0 0 1 .1-1 .6.6 0 0 1 .3.4v.2c0 .1.1 0 .1-.1v-.6l.2.2c.2.2.3 0 .4-.2l.2.6a.7.7 0 0 1 .1.5 2.9 2.9 0 0 0 .1 1.3 8.4 8.4 0 0 0-.3 2h-.2v-.8H2c-.2 0-.3-.2-.4-.5v-1.3c0-.1-.1-.3-.1-.3l-.2.2a2.6 2.6 0 0 0 0 .3v.6a.3.3 0 0 1 0-.1H.9a3.4 3.4 0 0 0 .4 1.3.4.4 0 0 1 0 .4c-.1.1-.2.3-.4.1a.4.4 0 0 0-.6-.1v.7c0 .2 0 .1.1.2l.2.2a1 1 0 0 0 .3.6.9.9 0 0 1 .1.7l-.2.5L.4 72a.5.5 0 0 0 .1.4h.1c.2 0 .2 0 .2.4s.1.6.1.9l-.3.3a1.1 1.1 0 0 0-.3.8v.5c0 .2 0 .4.2.3s.2 0 .3.2l.2.5v.6h.2a2.6 2.6 0 0 0 0-.8c0-.2.1-.3.1-.3h.1c.1 0 .1.2 0 .4v.4c0 .2.1.4.1.3l.4-.3a5.2 5.2 0 0 1 0-1.6v-1a.6.6 0 0 1 0-.3h.2c.1 0 .1.1.1.3v.9a4.3 4.3 0 0 1 0 1.1.3.3 0 0 0 .1.3h.1v1.5a.9.9 0 0 1-.2.6.5.5 0 0 0-.1.4v.4a.7.7 0 0 1-.1.6l-.3-.4-.3.6v.2a2.7 2.7 0 0 0 0 1.1c.1.4.2.6.4.4l.2-.3h.1a1.6 1.6 0 0 0-.1.4 7.9 7.9 0 0 1 0 1.8c0 .2-.1.5-.3.5h-.1v.2a1.6 1.6 0 0 1 .2 1.1c0 .1-.1.2-.1.3l.3.9h.2a.4.4 0 0 1 .1.3v.2a.8.8 0 0 0-.2.6 13.1 13.1 0 0 1-.1 1.8l-.2.3a4.8 4.8 0 0 0-.4 2.8v.2c0 .1-.1 0-.2-.2V92c0 .2 0 .5-.1.7l-.2.9.2 1a6 6 0 0 0 .1 1.1 1.1 1.1 0 0 1 0 .4c-.1.3-.1.5-.2.8a5.9 5.9 0 0 0 0 .8h.2v.3a3.4 3.4 0 0 0 .2 1.1 5.2 5.2 0 0 0 .1-1 1.3 1.3 0 0 1 .1-.4 3.3 3.3 0 0 0 .4-1h.1a6.8 6.8 0 0 0 .2 1.6 10 10 0 0 1 0 1.8h.1l1.1.3H4l.6-.2h-.2c.2-.1.2 0 .2 0h.3c.4.2.4.2.7 0l.4-.2.8.3h1c-.3.2.1.3.5.3 0-.2 0-.3.3-.5a1 1 0 0 0 .8.1h1c.6.2 1.5.1 1.9.4h1l.4-.2a2 2 0 0 1 1.4.1l.4.2h.7c.6-.1.7-.1 1 .1h3.1v-.1s0-.2.2-.2h.4l.4.2h.2a1.5 1.5 0 0 0 .9.2H25c.2.2.3.1.6 0h.5a.4.4 0 0 0 .5 0 1.3 1.3 0 0 1 1-.1h.3l.3-.2h.4c.3 0 .5.1.5.2s.1.2.4.2.6.1.8.1h1.3a6.1 6.1 0 0 1 2.5 0h.7l.2-.3a.6.6 0 0 1 .5-.2l.6-.2.4-.2a1.8 1.8 0 0 1 1.1-.2h.6a1 1 0 0 0 .8-.1 2 2 0 0 1 1.2 0c.2 0 .2.2.1.2h-.5a.8.8 0 0 0 0 .2c0 .1.2.2.4.1l1.1-.2h.6a1.9 1.9 0 0 1 1.2.2h1.1c.3.1.4.3.8.3l.9-.3h4.3c.1-.1.3-.1.5 0h.7l.2-.2h.5c1.2-.1 2.4-.1 3.6-.1h.1c.1 0 0 .1-.1.1s-.6.2-.3.4.1.2.1.3h.9l.3-.3a1.6 1.6 0 0 0 .1-.4l.4-.2h.3l-.5-.2h1.1l.3.5c.1.1 0 .2 0 .3h.1c-.1 0-.1-.1-.1-.1h-1a3.8 3.8 0 0 0 1.5 0c.2-.2.7-.3.5-.6h.2l.5-.2a.9.9 0 0 1 0-.2c0-.1.1-.2.3-.2h.7v.6h.5c-.4 0-.5.1-.5.3h1.7c.3 0 .6 0 .8.2h.1a3.4 3.4 0 0 0 2-.1h1c.2 0 .3-.1.2-.2l-.2-.3h.7c.3 0 .4.1.7.1v-.2c0-.1 0-.1.1-.1h.1a.1.1 0 0 1 0 .1l-.2.2a2.2 2.2 0 0 1 1 .1v.5h-.9c.1.2.7.2.7.4h.5l1.1.2h.3l.2-.4c-.1-.2.1-.3.4-.3l-.3-.2.2-.2h.6a.7.7 0 0 0 0-.2c0-.1 0-.1.1-.1h.3a1.5 1.5 0 0 1 .8.4l.4.2 1 .2h1.3a3.5 3.5 0 0 0 1.4.3c.3 0 .6-.1.5-.2l-.2-.6c0-.1.1-.2.4-.2s.4 0 .4.2 0 .3.4.4l.5.2a.5.5 0 0 0 .4.2h1.9l.5-.3c.2-.2.6-.1.9-.1h.7v.1c0 .1.2.2.6.1h.5c-.1-.1.1-.2.3-.3h.5c.2.1.3.2.2.3v.2h.3l.6-.2a10.5 10.5 0 0 1 2 0l1.4-.5h.9c.3 0 .4.1.2.3H91a1.7 1.7 0 0 0 .9.2c.3 0 .4.1.5.2a.6.6 0 0 0 .6 0h.1c.1-.2.5-.4 1-.3h.9c0 .2.1.2.4.3a5.6 5.6 0 0 1 1.5.2H98a.8.8 0 0 1-.7-.3h.6l.9.3c-.1 0-.1 0 0 0s0 .1 0 .1h.4l.8-.3h.5c.3 0 .4-.1.4-.2s0-.2-.2-.2h-.6c-.1 0-.1-.1 0-.2h-.7l-.6.2h-.2v-.1h.8a2.4 2.4 0 0 0-1.9-.1l-.6-.2a1.4 1.4 0 0 0-.8-.1c-.4 0-.5.1-.5.3s-.1.2-.2.2h-.5c.1-.1.1-.2-.3-.3h6.4v-1.4a.5.5 0 0 0 .1-.4h-.1V79.8a4.9 4.9 0 0 0 0-1.4V64.8h.1c0-.6.1-1.2 0-1.8a1.3 1.3 0 0 0-.2-.6v-3.7l.2-.9a3.1 3.1 0 0 0 .1-1.1 6.2 6.2 0 0 1 0-1.7 5.9 5.9 0 0 0 0-.6 1.9 1.9 0 0 0-.1-.7l-.2-.4v-2.7l.2-.6a1.8 1.8 0 0 0 .1-.7 5.9 5.9 0 0 0-.1-1.5 5.4 5.4 0 0 1-.1-1v-3.6a4.6 4.6 0 0 0 .1-1.2v-2.1l.3-1.3v-.3a1.4 1.4 0 0 1-.1-1.2l.2-.7a9.7 9.7 0 0 0 .2-1.5v-1.6a5.9 5.9 0 0 0 0-.8 4.4 4.4 0 0 1 .1-1.4 1 1 0 0 0 0-.3v-.2h-.1c-.1.1-.1.4-.3.4a13.8 13.8 0 0 1 .1-2 2.7 2.7 0 0 0 0-.5h-.5v-2.1a.6.6 0 0 0 0-.3v-3.5a3.1 3.1 0 0 0 .5-1.3 1.8 1.8 0 0 0-.3-.6l-.2-.3V20h.1c.1.1.2.2.3.1a.8.8 0 0 0 .2-.7 4.4 4.4 0 0 1 .2-1.9 1.6 1.6 0 0 0 0-.4h-.1a.4.4 0 0 1-.1-.4c0-.2.1-.1.2-.1h.1c0-.4 0-.8-.1-1.2s-.1-.5-.1-.7a4.2 4.2 0 0 1 0-.6v-1.3l-.3-1a2.2 2.2 0 0 1 0-1.2l.3-1.4c.1-.5.1-1.1.2-1.7a.5.5 0 0 0 0-.2 1.7 1.7 0 0 0 0-.3l-.3-1v.9c0-.3.1-.5.1-.8v-.3a2.3 2.3 0 0 1 .2-1.1 4.4 4.4 0 0 0 .2-1.4zM88 1.6zM1.6 20.7c0-.1.1-.1.1 0zm.1 1.2a.2.2 0 0 1 0-.2h.1v.2zM1.3 40v.4h.1a.4.4 0 0 1 0 .1c-.1 0-.1-.1-.1-.2V40zm0 5.1a1.3 1.3 0 0 1 0-.3v-.2.5zm.1-2c-.1.5-.2.6-.4.2a1 1 0 0 1 0-.3l.5-.3a1.3 1.3 0 0 1-.1.4zM.7 75zm.3-3.5a.6.6 0 0 1 0-.2c0-.2.1-.2.2-.2v.2c0 .2-.1.4-.2.2zm.7-.8c0 .1-.1.2-.2.1l-.2-.4a.7.7 0 0 1 0-.3V70h.4zm.6 2.3h-.1v-.2c.2.1.2.2.2.3zm0-1.2c0-.1 0-.2.1-.1.1.2 0 .3 0 .2zm-1 25.4zm.9-2h-.1v-.3a1.2 1.2 0 0 1 0-.3l.2.2a.6.6 0 0 1-.1.4zm94.7 6.1h.4l-.4-.2v.2zm-.2.5v.1h-.4v-.1zM94.6 1.6s-.1 0 0 0zm-12.8-.4zm-.8.2h-.5c-.1.2.2.1.5.1zM61.1.5zm-6.4.6zm-3.5.6h1.7a.1.1 0 0 1 .1.2h-1.9v-.2zm-10.4 0zm-17.3-.2h.2a1.7 1.7 0 0 1 1 .3h-1.2a.3.3 0 0 1 0-.3zm-1.2.2zM20 1.1h.3c.1 0 .2.1.1.2H20l.1-.1zm-1 .2zM17.9.8h.1c-.1.1-.2 0-.1 0zm.1.4l-1 .2h-.1a1.7 1.7 0 0 1 1.1-.3zM14.6.9l1.2.3s.1.1 0 .1h-.5zm6 .9zM3.4 1.7zM3 .6zm-.6 11zm-1 38.5a.6.6 0 0 1 0 .1h-.1c.1-.3.1-.3.1-.1zm-.4-.8zm-.1.8a.3.3 0 0 1 0 .1c.1-.2.1-.3.1-.1zm.5 7.4c-.1.3-.2.2-.3-.2a.6.6 0 0 0-.1-.4c.2-.2.2-.2.3.3l.2-.5h.1a.6.6 0 0 1 0 .3 1.3 1.3 0 0 1-.1.5zm.3-3.3c-.2 0-.2.3-.3.6h-.1a4.9 4.9 0 0 0-.2-1.9l-.2-.3H.7c-.1.1-.1 0-.1-.3v-.4c.2-.1.4-.1.5-.3s.3 0 .5.1.1.1.1.5v.2c-.1-.2-.2-.3-.2-.2a.7.7 0 0 0 0 .4l.3 1.2c0 .1.1.1.2 0-.1.1-.1.4-.2.4zm-.1-4.1V49l.4-.5v1c0 .3-.1.6-.3.6zm.2-3zm.2-8.9zm.1 7.9zm-.3-9.3c-.1.2-.2-.1-.2-.3a1.3 1.3 0 0 1 0-.6.6.6 0 0 0 0-.4V35a2.5 2.5 0 0 1 0-1.2h.1v.2c0 .2.1.3.2.3H2a2.4 2.4 0 0 0 0 1.3l.3.9c-.2-.1-.3.1-.5.3zm.4-17.3l-.2.2c-.1 0-.2-.3-.2-.5s.1-.2.2-.2l.2.2a.6.6 0 0 1 .1.4zm.1-11.2a.8.8 0 0 1-.1-.5v-.2a1.1 1.1 0 0 1 .1.7zm.1 5.7zm0 43.7a.2.2 0 0 1 0-.2v.3zm-.1 27.4v-.2a.5.5 0 0 1 0-.1h.2v.5h-.2zm.1 5v-.2a.5.5 0 0 1 .1-.4v.6zM13 100.8zm6.6-.4zm3.8.7h-.6c-.1 0-.2-.1-.1-.2h.7zm1.2-.2zm9 .3zm6.6-.8h-.3v-.1h.3zm2.3.5h-1v-.2h.8c.1.1.2.2.1.2zm3.2-.2c-.2.3-.7.3-1.2.3h1.2zm3.7.4h-2.9c-.1-.1 0-.2.3-.3h2.5zm1.5-.2l-.3.3h-.4l.2-.6h.5c-.1.1 0 .2-.1.3zm1.3 0zm1.7-.3zm1.5.3H55s-.1-.1 0-.1h.3zm3.1-.4h-.3c0-.1 0-.1.1-.1h.2zm4.5.8zm6-.9h-.3c-.1-.1 0-.1.2-.2h.1zm1.4 1zm4.3-.6c-.1-.2 0-.3.3-.4l-.8.2v.3h-.3c-.2-.3.1-.4.7-.4h.5v.5zm1.8-.2h-.2v-.1h.2zm6 .4zm1.2-.4c-.1 0-.1-.1-.1-.1h.1zm3.8.1c-.1 0-.2 0-.1-.1h.1zm1.3.2zm5.5.2zm-32.7-.8a.8.8 0 0 1 .6 0h-.6c-.3-.1-.4-.1-.3-.2h.4v.2zM101 4.7v-.6h.1c.1 0 .2.2.2.4v.3zm.3 12.8a1.2 1.2 0 0 1 0 .7h-.1c-.2-.1-.2-.4-.2-.8v-.2zM1.7 85.7zM.9 66.6zm1.4 10.5zM2 34.3z"></path><path d="M.3 66.8a.4.4 0 0 1 .5-.2h.1l.2-.8-.5-.9H.4L0 65a.5.5 0 0 0 0 .3c0 .2.1.4.2.4h.3c-.1.3-.1.8-.3.8v.2c-.1.1 0 .2.1.1zm.6-.2zm37.2 35.3zM8.7 1c.3 0 .4-.1.4-.3s0-.2-.3-.2a1 1 0 0 1-.8.1h-.4c-.2.1-.2.3.1.4s.1.1 0 .2a.7.7 0 0 1 .5-.2zM3.5 101.5c.5.1.5.1 1.6 0l-.7-.2zm-2-96.9h.1a4.7 4.7 0 0 1 0-.6 1.3 1.3 0 0 0-.2-.9 6.9 6.9 0 0 1 .1 1.5zm52.8 97.6c-.1 0-.1.2.1.2h-.1zm24.7-.1h-.2l-.2.3h.2l.4-.2zm-77.5-12zm.2-1c0-.2-.1-.2-.2-.2s-.1.1-.1.2v.7a1.5 1.5 0 0 0 .3-.7zm.1-1.4zm-.3-.6c.1.2.1.7.3.6l-.2-.6h-.1zm86.7 14.7h-.4c-.1 0-.2.1-.1.2h.7c.1 0 0-.1-.2-.2zm-34.5-.3c-.2 0-.3.1-.2.1l.4.2h.1c.1 0 .2-.2.2-.2h-.5zM35.8.7c.1-.1.2-.1 0-.2zM8.4 0h-.1c-.1.2.2.3.6.4L8.6 0zM49 .8c.1-.1.1-.2 0-.3h-.5c0 .2.3.2.5.3zm-7.3 101zm-40-19.3v-.2c-.1 0-.1.2-.1.3s.1 0 .1-.1zM47.6.7c.1.1.1 0 0 0zM38 .7zM10.3.7zm29.6 100.6zm-1.1.1zm0 0a1.1 1.1 0 0 0 .8 0h-.8zm63.9-40.8c-.1-.1-.1-.1-.1 0a.4.4 0 0 0 .1.3h.1zm-42.9 41.5h.2c.2 0 .3 0 .3-.2h-.2zM.4 59.6v-.2H.3a.5.5 0 0 0 0 .2c0 .3.1.2.1 0zM101.8 5.8c0 .1.1.1.1-.1h-.1a.6.6 0 0 0 0 .1zM68.8.7h-.2c-.1 0-.2.1 0 .2zM1.2 80.3zM.9 92.2H1V92H.9c0 .1-.1.2 0 .2zm37.8 9.7zm-.6 0zm63.1-56.6c0 .1.1.1.1-.1h-.1a.3.3 0 0 0 0 .1zM10.7 1.4zm-8.8 66H2c0 .1 0 0-.1 0zm99.7-40.8v-.1.1zM1.9 88.1a.3.3 0 0 0 0-.1c-.1.1-.1.1 0 .1zM85.2 1zm-50 0zM1.7 85.9c0-.1 0 0 0 0zM30.3.8zm-9.1 100.3c-.1 0-.1.1.1.1h-.1zm.1 0zM1.4 99.5v-.2a.2.2 0 0 0 0 .2zm.1-.2zM7.5.6h.1-.1zm.2 0zM1.3 6.3zM50.1.4zm21.3 101.2v.3c.3-.2.3-.2 0-.3zm0 .2zm0-.2zM.7 23.9zM68.1 102zM.7 19.3zm62 82.7c-.1.1 0 .1.1.1h-.1zM.4 35.8h.1c0-.1-.1-.2-.1 0zm.1.1zm99-34.3zm.3-.1zM2.3 76.9v.1zm99.3-55.7zM30.9.8v.1-.1zm-2.8 0l-.1.1.1-.1zM8.3 101.2h.1s.1 0 0-.1h-.1zm7.8 0zM70.9.7h-.1.1zM22.7.7h-.1.1zM1.4 90.4v-.3.3zm.1-.3zm-.1.3zm0-87.3zm0 0zm37.4 98.3zm-.2.1zm-.3 0v-.2H38c-.2.2-.6.1-1 .1h-.2c.1.2 0 .4.2.5h1v-.2l.2-.2zM52.9.5zm.2-.1H53c.1.1.2.1.1 0zM38.6.5h.1-.1zm3.1 101.2zm0 0l-.2-.2v.2zm-.2-.2zm-.2.2zm-.1.1h.2c-.2-.1-.3-.1-.2 0zm27.3.1zM.7 24.6zm0 .3a.4.4 0 0 0 0-.3v.3zm0 10.2V35v.1zm.1 20.1zM35 102zm27.1-.1c.1 0 .1 0 0 0zM.6 36H.5s0 .2.1 0z"></path></g></g><g id="SvgjsG3941" featureKey="symbolFeature-0" transform="matrix(1.0273972781699068,0,0,1.0273972781699068,2.5424642004154876,5.9633562041349055)" fill="#fafafa"><path xmlns="http://www.w3.org/2000/svg" opacity="0.35" enable-background="new    " d="M38.706,42.655v1.351c-0.022-0.008-0.043-0.015-0.062-0.025v-0.895  C38.643,42.936,38.665,42.792,38.706,42.655z"></path><path xmlns="http://www.w3.org/2000/svg" d="M50.971,43.086v0.895c-0.02,0.01-0.041,0.017-0.061,0.025v-1.351C50.948,42.792,50.971,42.936,50.971,43.086z"></path><path xmlns="http://www.w3.org/2000/svg" d="M44.807,46.812c-2.171,0.02-4.29-0.383-6.128-1.191v3.338c0,0.831,0.659,1.504,1.474,1.504h3.472v2.362h-0.05  c-1.426,0-2.583,1.157-2.583,2.582v13.487c0,1.334,1.012,2.434,2.31,2.568v-0.021c0.283-0.223,0.682-0.428,1.322-0.428  c0.636,0,1.035,0.215,1.319,0.428v0.037h0.102c1.426,0,2.58-1.155,2.58-2.584V55.408c0-1.424-1.154-2.582-2.58-2.582h-0.05v-2.362  h3.471c0.813,0,1.472-0.673,1.472-1.504v-3.338C49.1,46.432,46.979,46.832,44.807,46.812z M46.305,58.672v7.682  c0,0.826-0.67,1.494-1.498,1.494c-0.821,0-1.499-0.668-1.499-1.494v-7.682c0-0.824,0.674-1.49,1.502-1.49  C45.634,57.182,46.305,57.848,46.305,58.672z"></path><path xmlns="http://www.w3.org/2000/svg" d="M54.443,4.51v3.023c0,0.445-0.36,0.807-0.807,0.807c-0.225,0-0.426-0.09-0.566-0.236c-0.146-0.147-0.234-0.349-0.234-0.571  V3.376c-0.624-0.38-1.273-0.707-1.928-0.987v5.144c0,0.445-0.358,0.807-0.803,0.807c-0.224,0-0.424-0.09-0.566-0.236  c-0.146-0.147-0.236-0.349-0.236-0.571V1.787c-0.66-0.212-1.31-0.377-1.93-0.502v6.249c0,0.445-0.361,0.807-0.8,0.807  c-0.224,0-0.421-0.09-0.568-0.236h-0.004c-0.01-0.011-0.017-0.019-0.026-0.029c-0.027-0.028-0.05-0.058-0.07-0.089  c-0.043-0.064-0.079-0.136-0.1-0.212c-0.016-0.049-0.025-0.104-0.033-0.157c-0.004-0.029-0.004-0.054-0.004-0.083V1.181  c0-0.043,0.004-0.086,0.008-0.125c-0.34-0.033-0.667-0.047-0.968-0.047c-0.301,0-0.625,0.014-0.969,0.047  c0.004,0.039,0.008,0.082,0.008,0.125v6.353c0,0.028,0,0.054-0.004,0.083c-0.007,0.054-0.018,0.108-0.033,0.157  c-0.021,0.076-0.057,0.148-0.1,0.212c-0.022,0.032-0.043,0.061-0.072,0.089c-0.007,0.011-0.014,0.019-0.026,0.029h-0.003  C43.465,8.25,43.264,8.34,43.042,8.34c-0.445,0-0.8-0.362-0.8-0.807V1.284c-0.621,0.125-1.27,0.291-1.93,0.502v5.747  c0,0.222-0.09,0.424-0.237,0.571C39.928,8.25,39.728,8.34,39.504,8.34c-0.44,0-0.798-0.362-0.798-0.807V2.389  c-0.653,0.28-1.303,0.606-1.926,0.987v4.157c0,0.222-0.091,0.424-0.237,0.571C36.398,8.25,36.198,8.34,35.976,8.34  c-0.446,0-0.804-0.362-0.804-0.807V4.51c-2.07,1.71-3.58,4.11-3.58,7.32v25.587c0.499,1.758,1.843,3.236,3.29,4.405  c0.096,0.079,0.194,0.154,0.29,0.229V40.91c0-0.222,0.09-0.423,0.237-0.566c0.146-0.147,0.347-0.236,0.567-0.236  c0.444,0,0.804,0.358,0.804,0.803v2.2c0.591,0.329,1.214,0.62,1.864,0.872v-0.897c0-0.15,0.022-0.293,0.062-0.43v-1.744  c0-0.222,0.089-0.423,0.236-0.566c0.146-0.147,0.348-0.236,0.562-0.236c0.224,0,0.427,0.089,0.571,0.233  c0.019,0.018,0.037,0.04,0.054,0.057c0.032,0.04,0.061,0.083,0.087,0.129c0.024,0.047,0.046,0.093,0.061,0.144  c0.021,0.075,0.036,0.158,0.036,0.24v3.62c0.634,0.172,1.281,0.309,1.93,0.409v-4.029c0-0.222,0.085-0.423,0.233-0.566  c0.144-0.147,0.344-0.236,0.567-0.236c0.444,0,0.804,0.358,0.804,0.803v4.193c0.323,0.022,0.645,0.029,0.961,0.029  c0.314,0,0.635-0.007,0.961-0.029v-4.193c0-0.444,0.359-0.803,0.805-0.803c0.222,0,0.423,0.089,0.566,0.236  c0.146,0.144,0.232,0.344,0.232,0.566v4.029c0.646-0.1,1.293-0.237,1.93-0.409v-3.62c0-0.082,0.014-0.165,0.035-0.24  c0.014-0.051,0.035-0.097,0.061-0.144c0.026-0.047,0.055-0.089,0.086-0.129c0.021-0.018,0.035-0.04,0.056-0.057  c0.146-0.144,0.344-0.233,0.565-0.233c0.221,0,0.42,0.089,0.566,0.236c0.146,0.144,0.236,0.344,0.236,0.566v1.744  c0.04,0.137,0.062,0.28,0.062,0.43v0.897c0.645-0.251,1.272-0.542,1.864-0.872v-2.2c0-0.444,0.356-0.803,0.802-0.803  c0.221,0,0.422,0.089,0.566,0.236c0.148,0.144,0.238,0.344,0.238,0.566v1.141c0.096-0.076,0.192-0.154,0.291-0.229  c1.444-1.169,2.789-2.647,3.287-4.405V11.83C58.021,8.62,56.512,6.22,54.443,4.51z M42.805,37.417h-8.883v-1.98h8.883V37.417z   M42.805,33.529h-8.883v-1.98h8.883V33.529z M42.805,29.644h-8.883v-1.98h8.883V29.644z M42.805,25.756h-8.883v-1.98h8.883V25.756z   M42.805,21.867h-8.883v-1.976h8.883V21.867z M42.805,17.982h-8.883v-1.98h8.883V17.982z M42.805,14.094h-8.883v-1.979h8.883V14.094  z M55.693,37.417h-8.885v-1.98h8.885V37.417z M55.693,33.529h-8.885v-1.98h8.885V33.529z M55.693,29.644h-8.885v-1.98h8.885V29.644z   M55.693,25.756h-8.885v-1.98h8.885V25.756z M55.693,21.867h-8.885v-1.976h8.885V21.867z M55.693,17.982h-8.885v-1.98h8.885V17.982z   M55.693,14.094h-8.885v-1.979h8.885V14.094z"></path><path xmlns="http://www.w3.org/2000/svg" d="M64.078,87.283c0.049,0.59,0.136,1.119-0.455,1.162c-1.438,0.106-2.773,0.162-4.021,0.164  c-5.611-0.002-9.363-1.113-11.901-3.469c-2.697-2.502-4.024-6.276-4.203-12.562c0.244-0.19,0.585-0.369,1.134-0.369  c0.549,0,0.893,0.187,1.135,0.369c0.164,5.627,1.156,8.916,3.389,10.991c2.596,2.41,7.14,3.281,14.305,2.74  C64.051,86.271,64.035,86.693,64.078,87.283z"></path></g><g id="SvgjsG3942" featureKey="nameFeature-0" transform="matrix(1.5281449067928745,0,0,1.5281449067928745,120.71725654582757,-10.848391271384077)" fill="#07689f"><path d="M31.367 25.683999999999997 c-0.15625 0.625 -0.33203 1.25 -0.56641 1.8945 l2.1289 0 c-2.4805 7.7539 -8.7891 13.379 -17.441 13.379 c-8.9258 0 -12.402 -5.625 -11.27 -13.379 l-2.0703 0 c0.078125 -0.64453 0.17578 -1.2695 0.3125 -1.8945 c2.0703 -8.9258 8.5352 -15.313 17.93 -15.313 c9.1992 0 12.988 6.4453 10.977 15.313 z M22.793 27.578 l-2.1094 0 c0.19531 -0.64453 0.39063 -1.2695 0.52734 -1.9336 c2.4805 -10.723 -6.1719 -10.41 -8.5938 0.039063 c-0.13672 0.68359 -0.23438 1.3086 -0.33203 1.8945 l2.1094 0 c-1.0156 8.1641 5.6445 7.9883 8.3984 0 z M62.3879140625 27.266 l-2.9102 12.715 l-9.082 0 l-3.8672 -12.715 l-0.44922 0 l-2.9492 12.715 l-9.1992 0 l2.9492 -12.715 l-1.7773 0 l3.7695 -16.367 l10.723 0 l3.1641 10.273 l2.4023 -10.273 l9.2383 0 l-3.7891 16.367 l1.7773 0 z M67.470690625 27.266 l-1.7969 0 l3.75 -16.367 l9.8047 0 l-3.7891 16.367 l1.8164 0 l-1.2891 5.332 l10.84 0 l-1.6797 7.3828 l-20.605 0 z M102.4171171875 26.719 l-0.95703 1.2305 l-2.7734 12.129 l-9.8438 0 l2.7148 -11.816 c-0.15625 -0.48828 -0.33203 -1.0156 -0.50781 -1.543 l-1.7578 0 c-1.8164 -5.2734 -3.9648 -10.723 -5.5078 -15.957 l11.055 0 l2.3047 7.4023 c1.7969 -2.4609 3.6523 -4.9414 5.4492 -7.4023 l10.801 0 l-12.734 15.957 l1.7578 0 z"></path></g><g id="SvgjsG3943" featureKey="nameFeature-1" transform="matrix(1.2794317229961967,0,0,1.2794317229961967,125.84962402097139,48.24245703539765)" fill="#07689f"><path d="M5.6641 27.266 l-2.2461 0 l9.1797 -16.387 l9.7461 0 l1.582 16.387 l2.1875 0 l1.2305 12.715 l-10.059 0 l-0.41016 -5.4883 l-5.5664 0 c-0.97656 1.8164 -1.8945 3.6523 -2.8711 5.4883 l-9.8828 0 z M16.621 27.676000000000002 l0 -0.41016 l-2.1289 0 l0.039063 -6.4844 l-2.6172 6.4844 l2.168 0 l-0.15625 0.41016 l2.6953 0 z M56.1571640625 27.266 l2.1875 0 c-2.1289 6.2891 -7.5586 11.23 -14.16 12.383 c-4.8633 0.68359 -10.352 0.35156 -15.293 0.35156 l2.9297 -12.734 l-2.168 0 l3.7695 -16.406 c3.9063 0 13.789 -0.60547 17.695 1.0547 c5.4102 2.3242 6.7578 8.2422 5.5078 13.516 c-0.097656 0.625 -0.25391 1.25 -0.46875 1.8359 z M41.626164062499996 18.066 l-2.1094 9.1992 l2.168 0 l-1.2695 5.4688 c4.2383 0 6.6016 -1.6016 7.9102 -5.4688 l-2.168 0 c0.21484 -0.52734 0.37109 -1.1523 0.54688 -1.8945 c1.2109 -5.0586 -0.27344 -7.3047 -5.0781 -7.3047 z M72.119359375 27.344 l-2.9297 12.734 l-9.8828 0 l2.9297 -12.734 l-1.9922 0 l3.8281 -16.484 l9.8633 0 l-3.7891 16.484 l1.9727 0 z M103.5695546875 27.266 l-2.9102 12.715 l-9.082 0 l-3.8672 -12.715 l-0.44922 0 l-2.9492 12.715 l-9.1992 0 l2.9492 -12.715 l-1.7773 0 l3.7695 -16.367 l10.723 0 l3.1641 10.273 l2.4023 -10.273 l9.2383 0 l-3.7891 16.367 l1.7773 0 z M109.74613125 27.266 l-2.2461 0 l9.1797 -16.387 l9.7461 0 l1.582 16.387 l2.1875 0 l1.2305 12.715 l-10.059 0 l-0.41016 -5.4883 l-5.5664 0 c-0.97656 1.8164 -1.8945 3.6523 -2.8711 5.4883 l-9.8828 0 z M120.70303125 27.676000000000002 l0 -0.41016 l-2.1289 0 l0.039063 -6.4844 l-2.6172 6.4844 l2.168 0 l-0.15625 0.41016 l2.6953 0 z"></path></g>
			</g>
		</svg>
	